<svg width="1920" height="608" viewBox="0 0 1920 608" fill="none" xmlns="http://www.w3.org/2000/svg">
<g filter="url(#filter0_f_105_908)">
<path d="M393.21 94.2859C392.586 93.7776 391.805 93.5 391 93.5H0C-1.933 93.5 -3.5 95.067 -3.5 97V427.421C-3.5 429.354 -1.933 430.921 0 430.921H164.725L238.748 493.134C239.379 493.664 240.176 493.954 241 493.954H1514.23L1625.26 586.686C1625.89 587.212 1626.68 587.5 1627.5 587.5H1921C1922.93 587.5 1924.5 585.933 1924.5 584V241.936C1924.5 240.003 1922.93 238.436 1921 238.436H1849.22L1777.68 181.386C1777.06 180.891 1776.29 180.622 1775.5 180.622H499.245L393.21 94.2859Z" stroke="url(#paint0_linear_105_908)" stroke-width="7" stroke-linejoin="round"/>
</g>
<g filter="url(#filter1_bdi_105_908)">
<path d="M393.21 94.2859C392.586 93.7776 391.805 93.5 391 93.5H0C-1.933 93.5 -3.5 95.067 -3.5 97V427.421C-3.5 429.354 -1.933 430.921 0 430.921H164.725L238.748 493.134C239.379 493.664 240.176 493.954 241 493.954H1514.23L1625.26 586.686C1625.89 587.212 1626.68 587.5 1627.5 587.5H1921C1922.93 587.5 1924.5 585.933 1924.5 584V241.936C1924.5 240.003 1922.93 238.436 1921 238.436H1849.22L1777.68 181.386C1777.06 180.891 1776.29 180.622 1775.5 180.622H499.245L393.21 94.2859Z" stroke="url(#paint1_linear_105_908)" stroke-width="7" stroke-linejoin="round" shape-rendering="crispEdges"/>
</g>
<g filter="url(#filter2_bdi_105_908)">
<path d="M391 88H0V418.421H166L241 481.454H1515.5L1627.5 575H1921V232.936H1848L1775.5 175.122H498L391 88Z" fill="white" fill-opacity="0.06" shape-rendering="crispEdges"/>
<path d="M391.316 87.6123C391.227 87.5397 391.115 87.5 391 87.5H0C-0.276142 87.5 -0.5 87.7239 -0.5 88V418.421C-0.5 418.697 -0.276142 418.921 0 418.921H165.818L240.678 481.837C240.768 481.913 240.882 481.954 241 481.954H1515.32L1627.18 575.384C1627.27 575.459 1627.38 575.5 1627.5 575.5H1921C1921.28 575.5 1921.5 575.276 1921.5 575V232.936C1921.5 232.66 1921.28 232.436 1921 232.436H1848.18L1775.81 174.731C1775.72 174.66 1775.61 174.622 1775.5 174.622H498.178L391.316 87.6123Z" stroke="url(#paint2_linear_105_908)" stroke-linejoin="round" shape-rendering="crispEdges"/>
</g>
<g filter="url(#filter3_f_105_908)">
<path d="M0 60H391L498 147.122H1775.5L1848 204.936H1921" stroke="#476B99" stroke-width="19" stroke-linejoin="round"/>
</g>
<mask id="mask0_105_908" style="mask-type:alpha" maskUnits="userSpaceOnUse" x="0" y="60" width="1921" height="487">
<path d="M391 60H0V390.421H166L241 453.454H1515.5L1627.5 547H1921V204.936H1848L1775.5 147.122H498L391 60Z" fill="#242424"/>
</mask>
<g mask="url(#mask0_105_908)">
<path d="M391 60H0V390.421H166L241 453.454H1515.5L1627.5 547H1921V204.936H1848L1775.5 147.122H498L391 60Z" fill="#17191A" stroke="url(#paint3_linear_105_908)" stroke-width="3" stroke-linejoin="round"/>
</g>
<defs>
<filter id="filter0_f_105_908" x="-19.9" y="77.1" width="1960.8" height="526.8" filterUnits="userSpaceOnUse" color-interpolation-filters="sRGB">
<feFlood flood-opacity="0" result="BackgroundImageFix"/>
<feBlend mode="normal" in="SourceGraphic" in2="BackgroundImageFix" result="shape"/>
<feGaussianBlur stdDeviation="6.45" result="effect1_foregroundBlur_105_908"/>
</filter>
<filter id="filter1_bdi_105_908" x="-90.9611" y="6.03886" width="2102.92" height="668.922" filterUnits="userSpaceOnUse" color-interpolation-filters="sRGB">
<feFlood flood-opacity="0" result="BackgroundImageFix"/>
<feGaussianBlur in="BackgroundImageFix" stdDeviation="41.9806"/>
<feComposite in2="SourceAlpha" operator="in" result="effect1_backgroundBlur_105_908"/>
<feColorMatrix in="SourceAlpha" type="matrix" values="0 0 0 0 0 0 0 0 0 0 0 0 0 0 0 0 0 0 127 0" result="hardAlpha"/>
<feOffset dy="4.79778"/>
<feGaussianBlur stdDeviation="6"/>
<feComposite in2="hardAlpha" operator="out"/>
<feColorMatrix type="matrix" values="0 0 0 0 0 0 0 0 0 0 0 0 0 0 0 0 0 0 0.25 0"/>
<feBlend mode="normal" in2="effect1_backgroundBlur_105_908" result="effect2_dropShadow_105_908"/>
<feBlend mode="normal" in="SourceGraphic" in2="effect2_dropShadow_105_908" result="shape"/>
<feColorMatrix in="SourceAlpha" type="matrix" values="0 0 0 0 0 0 0 0 0 0 0 0 0 0 0 0 0 0 127 0" result="hardAlpha"/>
<feOffset dy="1"/>
<feGaussianBlur stdDeviation="2.39889"/>
<feComposite in2="hardAlpha" operator="arithmetic" k2="-1" k3="1"/>
<feColorMatrix type="matrix" values="0 0 0 0 1 0 0 0 0 1 0 0 0 0 1 0 0 0 0.02 0"/>
<feBlend mode="normal" in2="shape" result="effect3_innerShadow_105_908"/>
</filter>
<filter id="filter2_bdi_105_908" x="-84.9611" y="3.03886" width="2090.92" height="656.922" filterUnits="userSpaceOnUse" color-interpolation-filters="sRGB">
<feFlood flood-opacity="0" result="BackgroundImageFix"/>
<feGaussianBlur in="BackgroundImageFix" stdDeviation="41.9806"/>
<feComposite in2="SourceAlpha" operator="in" result="effect1_backgroundBlur_105_908"/>
<feColorMatrix in="SourceAlpha" type="matrix" values="0 0 0 0 0 0 0 0 0 0 0 0 0 0 0 0 0 0 127 0" result="hardAlpha"/>
<feOffset dy="4.79778"/>
<feGaussianBlur stdDeviation="6"/>
<feComposite in2="hardAlpha" operator="out"/>
<feColorMatrix type="matrix" values="0 0 0 0 0 0 0 0 0 0 0 0 0 0 0 0 0 0 0.25 0"/>
<feBlend mode="normal" in2="effect1_backgroundBlur_105_908" result="effect2_dropShadow_105_908"/>
<feBlend mode="normal" in="SourceGraphic" in2="effect2_dropShadow_105_908" result="shape"/>
<feColorMatrix in="SourceAlpha" type="matrix" values="0 0 0 0 0 0 0 0 0 0 0 0 0 0 0 0 0 0 127 0" result="hardAlpha"/>
<feOffset dy="1"/>
<feGaussianBlur stdDeviation="2.39889"/>
<feComposite in2="hardAlpha" operator="arithmetic" k2="-1" k3="1"/>
<feColorMatrix type="matrix" values="0 0 0 0 1 0 0 0 0 1 0 0 0 0 1 0 0 0 0.02 0"/>
<feBlend mode="normal" in2="shape" result="effect3_innerShadow_105_908"/>
</filter>
<filter id="filter3_f_105_908" x="-50" y="0.5" width="2021" height="263.936" filterUnits="userSpaceOnUse" color-interpolation-filters="sRGB">
<feFlood flood-opacity="0" result="BackgroundImageFix"/>
<feBlend mode="normal" in="SourceGraphic" in2="BackgroundImageFix" result="shape"/>
<feGaussianBlur stdDeviation="25" result="effect1_foregroundBlur_105_908"/>
</filter>
<linearGradient id="paint0_linear_105_908" x1="408.426" y1="-595.328" x2="2046.6" y2="371.085" gradientUnits="userSpaceOnUse">
<stop stop-color="#86FDD2"/>
<stop offset="0.333" stop-color="#F4E987"/>
<stop offset="0.666" stop-color="#F86675"/>
<stop offset="1" stop-color="#AD69F0"/>
</linearGradient>
<linearGradient id="paint1_linear_105_908" x1="408.426" y1="-595.328" x2="2046.6" y2="371.085" gradientUnits="userSpaceOnUse">
<stop stop-color="#86FDD2"/>
<stop offset="0.333" stop-color="#F4E987"/>
<stop offset="0.666" stop-color="#F86675"/>
<stop offset="1" stop-color="#AD69F0"/>
</linearGradient>
<linearGradient id="paint2_linear_105_908" x1="960.5" y1="88" x2="960.5" y2="575" gradientUnits="userSpaceOnUse">
<stop stop-color="white" stop-opacity="0.32"/>
<stop offset="0.11" stop-color="white" stop-opacity="0.24"/>
<stop offset="1" stop-color="white" stop-opacity="0.08"/>
</linearGradient>
<linearGradient id="paint3_linear_105_908" x1="960.5" y1="60" x2="960.5" y2="547" gradientUnits="userSpaceOnUse">
<stop stop-color="white" stop-opacity="0.32"/>
<stop offset="0.11" stop-color="white" stop-opacity="0.24"/>
<stop offset="1" stop-color="white" stop-opacity="0.08"/>
</linearGradient>
</defs>
</svg>
